<svg width="40" height="40" fill="none" xmlns="http://www.w3.org/2000/svg"><g clip-path="url(#clip0)" fill="#688800"><path d="M38.416 8.825L20.255.058a.586.586 0 00-.51 0L1.584 8.825a.586.586 0 00-.332.528v21.293c0 .225.13.43.332.528l18.161 8.767a.586.586 0 00.51 0l18.161-8.767a.586.586 0 00.331-.528V9.353a.586.586 0 00-.33-.528zM20 1.236l16.814 8.117-4.874 2.353a.589.589 0 00-.1-.063L15.142 3.582 20 1.236zm-6.182 3.008l16.79 8.106-3.44 1.66-16.782-8.102 3.432-1.664zM31 13.461v6.136l-3.212 1.551v-6.136L31 13.46zm6.576 16.817l-16.99 8.202V18.489l4.053-1.957a.586.586 0 00-.51-1.055l-4.13 1.993-1.624-.784a.586.586 0 10-.51 1.055l1.549.747V38.48l-16.99-8.202V10.287l12.938 6.245a.583.583 0 00.782-.273.586.586 0 00-.273-.782L3.186 9.353l5.82-2.81 17.602 8.497.008.01v7.032a.586.586 0 00.84.527l4.385-2.116a.586.586 0 00.33-.528v-7.07l5.405-2.608v19.991z"/><path d="M7.26 28.006L4.595 26.72a.586.586 0 10-.51 1.055l2.665 1.287a.583.583 0 00.783-.273.586.586 0 00-.273-.783zm2.453-1.596L4.6 23.94a.586.586 0 10-.51 1.056l5.115 2.47a.584.584 0 00.782-.274.586.586 0 00-.273-.782z"/></g><defs><clipPath id="clip0"><path fill="#fff" d="M0 0h40v40H0z"/></clipPath></defs></svg>