<svg width="40" height="40" fill="none" xmlns="http://www.w3.org/2000/svg"><g clip-path="url(#clip0)" fill="#688800"><path d="M38.166 14.202H34.23l-1.99-7.8a1.837 1.837 0 00-2.23-1.324l-4.535 1.156a.572.572 0 00.283 1.108l4.535-1.157c.37-.094.746.13.84.5l.22.863L1.386 15.19l-.22-.864a.687.687 0 01.5-.84l20.613-5.257a.572.572 0 00-.282-1.108L1.382 12.378a1.836 1.836 0 00-1.325 2.23l4.228 16.578a1.837 1.837 0 002.23 1.324l.27-.069v.704c0 1.011.824 1.834 1.835 1.834h29.546A1.836 1.836 0 0040 33.145V16.037a1.836 1.836 0 00-1.834-1.835zm-31.38 17.06l-.553.14a.692.692 0 01-.84-.498L2.804 20.756l3.98-1.015v11.52zm0-15.225v2.525l-4.264 1.087-.854-3.351L7.19 14.89a1.826 1.826 0 00-.404 1.147zm26.265-1.835h-4.543l4.266-1.088.277 1.088zm-1.414-5.546l.854 3.35-8.61 2.196H9.886l21.751-5.546zm6.529 25.18H8.62a.692.692 0 01-.691-.691V16.037c0-.381.31-.691.691-.691h29.546c.381 0 .691.31.691.69v17.109c0 .38-.31.69-.691.69z"/><path d="M22.76 28.273H10.308a.571.571 0 100 1.143h12.454a.571.571 0 100-1.143zm9.526-10.05c-.821 0-1.58.265-2.2.713a3.742 3.742 0 00-2.202-.713 3.767 3.767 0 00-3.763 3.762 3.767 3.767 0 003.763 3.763c.799 0 1.564-.25 2.202-.713.62.448 1.379.713 2.2.713a3.767 3.767 0 003.762-3.763 3.767 3.767 0 00-3.762-3.762zm-3.759 3.94l.003.045c.003.048.006.095.011.143l.003.033a3.71 3.71 0 00.712 1.833 2.623 2.623 0 01-3.991-2.232 2.623 2.623 0 013.99-2.231 3.71 3.71 0 00-.71 1.832l-.004.034a4.002 4.002 0 00-.01.143l-.003.044a3.78 3.78 0 000 .357zm3.759 2.442a2.61 2.61 0 01-1.93-.851l-.018-.02a2.608 2.608 0 01-.672-1.75 2.607 2.607 0 01.782-1.863 2.61 2.61 0 011.838-.755 2.623 2.623 0 012.62 2.62 2.623 2.623 0 01-2.62 2.62zM14.38 18.594h-2.506a2.14 2.14 0 00-2.138 2.138v2.507a2.14 2.14 0 002.138 2.138h2.506a2.14 2.14 0 002.138-2.138v-2.507a2.14 2.14 0 00-2.138-2.138zm.995 3.698h-1.22a.572.572 0 000 1.144h1.2a.996.996 0 01-.975.797h-2.506a.996.996 0 01-.975-.797h1.2a.572.572 0 000-1.144h-1.22v-.495h1.22a.571.571 0 100-1.143h-1.216a.995.995 0 01.99-.917h2.507c.522 0 .951.405.991.917h-1.215a.572.572 0 000 1.143h1.219v.495zm20.805 8.496h-19.9a.571.571 0 100 1.143h19.9a.571.571 0 100-1.143zm-23.544 0h-2.329a.571.571 0 100 1.143h2.33a.571.571 0 100-1.143z"/></g><defs><clipPath id="clip0"><path fill="#fff" d="M0 0h40v40H0z"/></clipPath></defs></svg>