<svg width="24" height="24" viewBox="0 0 24 24" fill="none" xmlns="http://www.w3.org/2000/svg">
<path d="M20.4853 3.51473C18.2188 1.24819 15.2053 0 12 0C8.79473 0 5.78123 1.24819 3.51473 3.51473C1.24819 5.78123 0 8.79473 0 12C0 15.2053 1.24819 18.2188 3.51473 20.4853C5.78123 22.7518 8.79473 24 12 24C15.2053 24 18.2188 22.7518 20.4853 20.4853C22.7518 18.2187 24 15.2053 24 12C24 8.79473 22.7518 5.78123 20.4853 3.51473ZM12 23.2421C5.80106 23.2421 0.757875 18.1989 0.757875 12C0.757875 5.80106 5.80106 0.757875 12 0.757875C18.1989 0.757875 23.2421 5.80106 23.2421 12C23.2421 18.1989 18.1989 23.2421 12 23.2421Z" fill="white"/>
<path d="M18.7965 4.62359C18.6801 4.53594 18.5238 4.52281 18.3944 4.58975L3.74176 12.1687C3.61511 12.2342 3.53594 12.3653 3.53687 12.5079C3.53781 12.6505 3.61876 12.7805 3.74636 12.8442L7.57905 14.7605V18.5577C7.57905 18.657 7.61284 18.7554 7.68123 18.8275C7.75689 18.9073 7.85744 18.9474 7.95803 18.9474C8.0214 18.9474 8.08478 18.9315 8.14211 18.8997L12.527 16.4636L15.8831 17.9019C15.9545 17.9325 16.0335 17.9452 16.1099 17.9309C16.2672 17.9015 16.3841 17.7811 16.4139 17.6322L17.263 13.3865C17.3099 13.1519 17.1306 12.9332 16.8914 12.9332C16.7108 12.9331 16.5553 13.0606 16.5198 13.2377L15.7622 17.0255L12.6547 15.6937C12.547 15.6476 12.4239 15.6539 12.3213 15.7107L8.33697 17.9243V14.5263C8.33697 14.3827 8.25587 14.2516 8.12748 14.1873L4.75178 12.4995L18.0422 5.62508L16.8889 11.3918C16.842 11.6263 17.0214 11.8451 17.2605 11.8451C17.4411 11.8451 17.5967 11.7175 17.6321 11.5404L18.9401 5.00056C18.9686 4.85778 18.9128 4.7112 18.7965 4.62359Z" fill="white"/>
<path d="M16.3397 7.72269C16.2206 7.57194 16.0074 7.53406 15.8437 7.63489L9.2753 11.677C9.16322 11.746 9.09497 11.8682 9.09497 11.9998V16.0419C9.09492 16.2177 9.21577 16.3703 9.38677 16.4107C9.41588 16.4176 9.44508 16.4209 9.47395 16.4209C9.61491 16.4209 9.74756 16.3419 9.81277 16.2114L11.301 13.2348L16.3102 8.22561C16.4461 8.08967 16.4588 7.87353 16.3397 7.72269ZM10.7217 12.7423C10.6929 12.7711 10.6689 12.8044 10.6507 12.8408L9.85284 14.4365V12.2115L13.492 9.97194L10.7217 12.7423Z" fill="white"/>
</svg>
